PathFileType	4	(X/Y/Z)	 s11c0203.trc
DataRate	CameraRate	NumFrames	NumMarkers	Units	OrigDataRate	OrigDataStartFrame	OrigNumFrames
200	200	4	48	mm	200	1751	2000
Frame#	Time	racr			lacr			c7			jug			rlel			rdr			llel			ldr			s2			lic			ric			lasi			rasi			rpsi			lpsi			rgt			lgt			rth1			rth2			rth3			rth4			rlfc			rmfc			rsh1			rsh2			rsh3			rsh4			rlmal			rcal			rtoe			rmt5			lth1			lth2			lth4			lth3			llfc			lmfc			llmal			lcal			lmt5			lsh1			lsh2			lsh3			lsh4			ltoe			SBIKE			LBIKE			RBIKE			
		X1	Y1	Z1	X2	Y2	Z2	X3	Y3	Z3	X4	Y4	Z4	X5	Y5	Z5	X6	Y6	Z6	X7	Y7	Z7	X8	Y8	Z8	X9	Y9	Z9	X10	Y10	Z10	X11	Y11	Z11	X12	Y12	Z12	X13	Y13	Z13	X14	Y14	Z14	X15	Y15	Z15	X16	Y16	Z16	X17	Y17	Z17	X18	Y18	Z18	X19	Y19	Z19	X20	Y20	Z20	X21	Y21	Z21	X22	Y22	Z22	X23	Y23	Z23	X24	Y24	Z24	X25	Y25	Z25	X26	Y26	Z26	X27	Y27	Z27	X28	Y28	Z28	X29	Y29	Z29	X30	Y30	Z30	X31	Y31	Z31	X32	Y32	Z32	X33	Y33	Z33	X34	Y34	Z34	X35	Y35	Z35	X36	Y36	Z36	X37	Y37	Z37	X38	Y38	Z38	X39	Y39	Z39	X40	Y40	Z40	X41	Y41	Z41	X42	Y42	Z42	X43	Y43	Z43	X44	Y44	Z44	X45	Y45	Z45	X46	Y46	Z46	X47	Y47	Z47	X48	Y48	Z48	
1751	8.7550	478.157873	1375.075515	-18.017329	531.224630	1383.082345	-326.154650	436.486700	1485.757280	-180.286682	470.162571	1310.344743	-181.634149	531.209252	1116.040549	73.021640	756.394215	967.085156	-46.861554	572.578971	1157.620848	-539.094709	788.810374	950.693267	-432.446144	-98.504411	1196.369974	-277.032502	138.459415	1211.394667	-454.956952	105.325837	1221.760163	-60.207925	174.457461	1142.831557	-428.561679	141.633502	1168.368388	-107.855408	-66.748092	1282.207151	-224.334850	-57.160725	1273.736369	-317.136195	71.170014	1109.699201	-38.893826	34.107981	1071.568749	-473.687725	205.793045	1055.781322	-44.400021	295.044564	1051.796706	-54.224287	368.363992	1004.669278	-63.916842	304.430180	1085.901435	-67.480363	473.870909	962.235958	-83.150279	480.052544	936.590721	-214.394269	426.013249	808.441200	-65.066811	412.387810	721.937597	-78.718715	359.540156	652.688156	-77.886200	437.562762	714.695674	-109.561991	290.982622	523.604605	-87.555744	223.695095	511.494765	-132.694581	502.400296	440.717606	-131.148687	430.040512	422.251121	-61.457129	128.114211	953.382021	-487.859761	194.734195	899.961919	-483.570370	224.864365	920.785357	-478.523955	227.260732	816.209909	-477.743954	292.923663	697.610090	-452.739888	317.312453	692.722719	-326.080694	23.492739	360.283707	-416.377356	-42.398988	333.203619	-376.948393	136.936911	227.132622	-444.859733	211.560961	600.711002	-466.756658	181.574784	523.100498	-447.435423	114.146388	466.412634	-438.829404	208.898812	507.530485	-424.064577	235.311987	219.754053	-378.573786	-205.550876	950.182207	-263.705875	1.149868	82.388308	-461.003954	-15.697109	81.223896	-62.667853	
1752	8.7600	478.548664	1375.743348	-18.979955	531.502775	1380.820512	-326.113528	436.470911	1485.851653	-181.637488	469.790387	1310.231374	-181.624463	532.331038	1116.780312	71.532484	755.994788	966.799119	-46.862658	573.495691	1156.273616	-539.533567	787.823770	950.324179	-431.737614	-98.799067	1195.676318	-278.245980	138.169872	1210.578208	-455.168569	104.228575	1220.236955	-60.243068	174.354013	1142.050603	-429.136862	141.466873	1165.673674	-107.206963	-66.838175	1281.380447	-225.582045	-57.630120	1273.006420	-318.102986	69.910842	1106.142489	-39.962017	35.460577	1071.087347	-473.526095	204.561277	1050.009692	-45.339967	293.551452	1044.004647	-55.006445	366.267994	995.585596	-64.517510	303.921146	1078.507544	-67.590104	470.318503	950.639486	-83.339234	475.720514	924.232935	-216.910821	422.924838	795.889442	-65.387939	410.295312	709.214700	-78.842869	358.313418	639.368329	-77.584438	434.425468	702.056941	-110.388515	292.165824	509.556091	-87.290259	225.191983	495.278319	-133.037578	506.105647	435.399033	-130.532509	434.365832	413.793198	-60.913934	132.772963	955.241881	-487.810844	200.456303	903.235270	-482.944955	230.048261	924.657107	-477.241672	234.640914	820.152250	-477.289689	300.800015	702.556624	-452.371147	323.409127	697.362111	-326.691003	23.848597	372.159303	-416.642179	-42.998379	347.815917	-377.490843	132.697999	235.377962	-444.929822	217.166159	607.615286	-466.484917	185.540637	530.645474	-447.366336	116.836438	475.493952	-438.734381	212.536968	514.406364	-424.021830	230.445557	224.423365	-378.289683	-205.595901	950.106126	-263.912273	1.127651	82.337941	-461.005171	-15.737844	81.214301	-62.655283	
1753	8.7650	479.055695	1376.916608	-20.128993	531.792077	1380.159362	-326.633003	436.298254	1485.907539	-183.180689	469.599618	1310.017122	-181.812807	533.558039	1117.671446	69.776499	755.599560	966.721147	-46.767519	574.122770	1155.573545	-539.296286	786.904520	949.884906	-430.712820	-99.030796	1194.662802	-279.307585	137.847032	1209.791793	-455.229858	103.585347	1218.454313	-60.054895	174.293814	1141.382655	-429.633801	141.542134	1162.691976	-106.467176	-65.583278	1279.642897	-227.713599	-58.030771	1272.076843	-318.991670	69.034015	1102.427479	-41.216220	36.987894	1070.165935	-474.040858	203.730772	1043.938695	-46.403259	292.511410	1035.854019	-55.423819	364.065999	985.856851	-65.230953	303.596686	1070.106822	-67.757939	466.489360	938.728469	-83.473342	473.230580	911.802203	-215.413058	419.675826	782.966416	-65.723104	408.038733	696.135798	-78.981596	357.035300	625.655611	-77.253576	432.414247	689.197320	-110.499133	293.406911	495.349123	-87.536435	226.427336	479.242194	-133.090195	509.335671	429.142913	-130.068902	438.323497	405.024182	-60.504366	137.444408	957.307528	-487.624506	206.126827	906.617586	-482.253639	235.197535	928.467871	-475.929501	241.915608	824.171826	-476.709191	308.542782	707.764470	-451.867948	329.933010	702.468495	-325.918328	24.964372	384.118162	-416.843740	-42.760362	362.805713	-377.879662	129.024326	243.877080	-444.889252	223.059147	614.841169	-466.182213	189.918641	538.461587	-447.165324	120.237163	484.553795	-438.519793	216.611976	521.615479	-423.854070	226.088897	229.214450	-377.971469	-205.642087	950.030933	-264.050497	1.107396	82.275637	-461.029709	-15.568332	81.204420	-62.608078	
1754	8.7700	479.814334	1378.373976	-21.621323	531.949009	1380.430915	-327.672245	435.927618	1485.917712	-185.019596	469.634705	1309.966627	-182.041972	534.643230	1118.601493	67.794680	755.212772	966.752196	-46.645297	574.214237	1155.231728	-538.933364	785.983171	949.458750	-429.258290	-99.433693	1193.534594	-280.171357	137.545047	1208.835153	-455.152013	102.781617	1216.394276	-60.371874	174.196060	1140.664778	-429.845285	141.833283	1159.656324	-105.832454	-65.494086	1277.974667	-228.352063	-58.035006	1270.975625	-320.046639	68.449828	1098.232823	-42.990052	38.724774	1069.727295	-474.110300	203.160655	1037.224877	-47.358112	291.548022	1027.328147	-55.698846	361.921612	975.480708	-65.966180	303.307053	1061.034661	-67.318236	462.559238	925.922650	-84.057805	469.903689	899.003703	-214.835910	416.320492	769.511000	-65.951126	405.984131	682.414899	-79.423661	355.831397	611.277729	-77.045675	429.845848	675.833160	-111.054516	294.552412	481.194641	-87.791743	227.854790	463.449239	-133.248587	512.177924	421.942746	-129.667063	441.828453	395.706487	-60.281171	142.099855	959.468445	-487.372140	211.740933	910.094366	-481.549776	240.261710	932.517688	-474.593218	249.053241	828.338183	-476.017799	316.275672	713.190056	-451.207129	336.197704	707.881105	-324.994302	26.921634	396.231118	-416.849953	-40.929952	378.210931	-378.306476	125.909592	252.619922	-444.886997	229.311722	622.286167	-465.808940	194.932642	546.523804	-446.786738	124.369271	493.678721	-438.185180	221.365111	529.253395	-423.434611	222.115191	234.172218	-377.689953	-205.671218	949.980829	-264.100375	1.107328	82.223393	-461.023579	-15.560606	81.133641	-62.612840	
